<svg xmlns="http://www.w3.org/2000/svg" viewBox="0 0 64 64" role="img" aria-label="OpenAI">
  <g fill="none" stroke="#ffffff" stroke-width="5" stroke-linecap="round" stroke-linejoin="round">
    <path d="M32 10c6 0 10 4 10 10 0 3-1 5-3 7" />
    <path d="M47 18c5 3 7 8 4 13-1 3-4 5-7 6" />
    <path d="M50 38c-1 6-6 10-12 9-3 0-5-2-7-4" />
    <path d="M32 54c-6 0-10-4-10-10 0-3 1-5 3-7" />
    <path d="M17 46c-5-3-7-8-4-13 1-3 4-5 7-6" />
    <path d="M14 26c1-6 6-10 12-9 3 0 5 2 7 4" />
    <path d="M24 27l8-5 8 5v10l-8 5-8-5z" />
  </g>
</svg>
